<?xml version="1.0" standalone="no"?>
<!DOCTYPE svg PUBLIC "-//W3C//DTD SVG 20010904//EN"
 "http://www.w3.org/TR/2001/REC-SVG-20010904/DTD/svg10.dtd">
<svg version="1.0" xmlns="http://www.w3.org/2000/svg"
 width="1462.000000pt" height="2506.000000pt" viewBox="0 0 1462.000000 2506.000000"
 preserveAspectRatio="xMidYMid meet">

<g transform="translate(0.000000,2506.000000) scale(0.100000,-0.100000)"
fill="#000000" stroke="none">
<path d="M0 12530 l0 -12530 6567 0 c6360 0 6566 1 6550 18 -26 29 -20 34 8 7
27 -27 54 -32 74 -12 11 10 13 10 7 0 -6 -10 138 -13 703 -13 l711 0 0 12530
0 12530 -7310 0 -7310 0 0 -12530z m7480 12486 c0 -2 -7 -7 -16 -10 -8 -3 -12
-2 -9 4 6 10 25 14 25 6z m470 -32 c0 -2 -9 0 -20 6 -11 6 -20 13 -20 16 0 2
9 0 20 -6 11 -6 20 -13 20 -16z m-540 -8 c0 -2 -8 -10 -17 -17 -16 -13 -17
-12 -4 4 13 16 21 21 21 13z m580 -21 c13 -14 21 -25 18 -25 -2 0 -15 11 -28
25 -13 14 -21 25 -18 25 2 0 15 -11 28 -25z m-137 -27 c66 -31 154 -114 209
-198 19 -30 112 -194 206 -365 267 -487 303 -557 284 -551 -286 86 -571 126
-887 126 -277 0 -446 -20 -693 -80 -88 -21 -112 -24 -108 -13 3 8 75 141 159
296 85 155 180 332 211 393 125 247 226 367 343 410 25 9 69 13 128 11 73 -2
101 -7 148 -29z m-523 -31 c0 -2 -10 -12 -22 -23 l-23 -19 19 23 c18 21 26 27
26 19z m745 -27 c10 -11 16 -20 13 -20 -3 0 -13 9 -23 20 -10 11 -16 20 -13
20 3 0 13 -9 23 -20z m36 -47 c13 -16 12 -17 -3 -4 -10 7 -18 15 -18 17 0 8 8
3 21 -13z m-867 -43 c-15 -22 -29 -40 -31 -40 -5 0 3 15 29 53 30 43 31 32 2
-13z m936 -60 c6 -11 8 -20 6 -20 -3 0 -10 9 -16 20 -6 11 -8 20 -6 20 3 0 10
-9 16 -20z m-1060 -140 c-6 -11 -13 -20 -16 -20 -2 0 0 9 6 20 6 11 13 20 16
20 2 0 0 -9 -6 -20z m1150 -10 c6 -11 8 -20 6 -20 -3 0 -10 9 -16 20 -6 11 -8
20 -6 20 3 0 10 -9 16 -20z m40 -70 c6 -11 8 -20 6 -20 -3 0 -10 9 -16 20 -6
11 -8 20 -6 20 3 0 10 -9 16 -20z m-1245 -20 c-9 -16 -18 -30 -21 -30 -2 0 2
14 11 30 9 17 18 30 21 30 2 0 -2 -13 -11 -30z m1310 -100 c9 -16 13 -30 11
-30 -3 0 -12 14 -21 30 -9 17 -13 30 -11 30 3 0 12 -13 21 -30z m-1420 -110
c-14 -27 -28 -50 -30 -50 -3 0 6 23 20 50 14 28 28 50 30 50 3 0 -6 -22 -20
-50z m1525 -90 c11 -22 18 -40 15 -40 -2 0 -14 18 -25 40 -11 22 -18 40 -15
40 2 0 14 -18 25 -40z m-1655 -160 c-9 -16 -18 -30 -21 -30 -2 0 2 14 11 30 9
17 18 30 21 30 2 0 -2 -13 -11 -30z m1770 -60 c9 -16 13 -30 11 -30 -3 0 -12
14 -21 30 -9 17 -13 30 -11 30 3 0 12 -13 21 -30z m-1860 -110 c-9 -16 -18
-30 -21 -30 -2 0 2 14 11 30 9 17 18 30 21 30 2 0 -2 -13 -11 -30z m1950 -60
c9 -16 13 -30 11 -30 -3 0 -12 14 -21 30 -9 17 -13 30 -11 30 3 0 12 -13 21
-30z m-1992 -15 c-3 -9 -8 -14 -10 -11 -3 3 -2 9 2 15 9 16 15 13 8 -4z m-83
-165 c-17 -33 -33 -60 -35 -60 -3 0 8 27 25 60 17 33 33 60 35 60 3 0 -8 -27
-25 -60z m2291 -241 c55 -111 99 -203 97 -205 -2 -1 -50 89 -106 201 -56 113
-100 205 -97 205 3 0 50 -90 106 -201z m-279 39 c53 -67 81 -115 157 -267 88
-175 91 -211 16 -211 -58 0 -125 95 -215 305 -62 145 -67 215 -15 215 16 0 35
-14 57 -42z m-2246 -265 c-14 -26 -25 -45 -26 -41 0 12 43 98 48 94 2 -2 -8
-26 -22 -53z m2743 -228 c0 -5 -6 1 -14 15 -8 14 -14 30 -14 35 0 6 6 -1 14
-15 8 -14 14 -29 14 -35z m-2853 -2 c-8 -15 -15 -25 -16 -21 0 12 23 58 27 54
3 -2 -2 -17 -11 -33z m-65 -140 c-12 -20 -14 -14 -5 12 4 9 9 14 11 11 3 -2 0
-13 -6 -23z m2989 -8 c0 -5 -5 -3 -10 5 -5 8 -10 20 -10 25 0 6 5 3 10 -5 5
-8 10 -19 10 -25z m-3039 -102 c-12 -20 -14 -14 -5 12 4 9 9 14 11 11 3 -2 0
-13 -6 -23z m3089 -8 c0 -5 -5 -3 -10 5 -5 8 -10 20 -10 25 0 6 5 3 10 -5 5
-8 10 -19 10 -25z m-1010 -100 c300 -29 737 -106 910 -161 137 -43 149 -62
320 -509 272 -711 409 -1259 464 -1865 31 -340 79 -1175 116 -2035 36 -852
131 -3334 160 -4190 5 -165 12 -343 15 -395 4 -59 2 -91 -4 -85 -13 14 -553
939 -586 1004 -70 140 -95 332 -95 741 0 847 -103 2093 -205 2478 -60 225
-139 361 -510 872 -77 107 -201 281 -275 385 -439 625 -576 773 -755 820 -75
19 -115 19 -190 -1 -176 -45 -233 -111 -869 -999 -141 -198 -299 -418 -351
-489 -275 -380 -334 -551 -399 -1157 -66 -603 -103 -1193 -126 -2017 -12 -445
-23 -516 -103 -667 -53 -100 -561 -964 -565 -961 -5 6 130 3672 168 4551 35
802 83 1671 116 2050 49 583 190 1173 446 1859 79 212 214 545 230 563 11 13
319 90 513 127 239 46 567 86 820 100 142 8 595 -4 755 -19z m1060 -10 c0 -5
-5 -3 -10 5 -5 8 -10 20 -10 25 0 6 5 3 10 -5 5 -8 10 -19 10 -25z m67 -167
c-3 -8 -6 -5 -6 6 -1 11 2 17 5 13 3 -3 4 -12 1 -19z m33 -62 c0 -12 -5 -7
-19 24 -11 24 -11 24 3 6 9 -11 16 -24 16 -30z m-3459 -163 c-12 -20 -14 -14
-5 12 4 9 9 14 11 11 3 -2 0 -13 -6 -23z m3559 -78 c0 -5 -5 -3 -10 5 -5 8
-10 20 -10 25 0 6 5 3 10 -5 5 -8 10 -19 10 -25z m-4937 -22 c-7 -2 -21 -2
-30 0 -10 3 -4 5 12 5 17 0 24 -2 18 -5z m6315 0 c-16 -2 -40 -2 -55 0 -16 2
-3 4 27 4 30 0 43 -2 28 -4z m-6478 -37 c0 -2 -7 -7 -16 -10 -8 -3 -12 -2 -9
4 6 10 25 14 25 6z m6300 -1 c0 -2 -10 -9 -22 -15 -22 -11 -22 -10 -4 4 21 17
26 19 26 11z m398 -59 c10 -12 0 -8 -23 9 -56 40 -66 51 -27 29 18 -10 41 -28
50 -38z m-6758 30 c0 -2 -17 -16 -37 -31 l-38 -26 35 30 c34 31 40 35 40 27z
m6310 0 c0 -2 -8 -10 -17 -17 -16 -13 -17 -12 -4 4 13 16 21 21 21 13z m-5855
-36 c10 -11 16 -20 13 -20 -3 0 -13 9 -23 20 -10 11 -16 20 -13 20 3 0 13 -9
23 -20z m5815 7 c0 -1 -28 -29 -62 -62 l-63 -60 60 63 c55 58 65 67 65 59z
m570 -72 c30 -30 52 -55 49 -55 -2 0 -29 25 -59 55 -30 30 -52 55 -49 55 2 0
29 -25 59 -55z m-6930 32 c0 -2 -17 -19 -37 -38 l-38 -34 34 38 c33 34 41 42
41 34z m615 -27 c10 -11 16 -20 13 -20 -3 0 -13 9 -23 20 -10 11 -16 20 -13
20 3 0 13 -9 23 -20z m60 -70 c10 -11 16 -20 13 -20 -3 0 -13 9 -23 20 -10 11
-16 20 -13 20 3 0 13 -9 23 -20z m-755 7 c0 -2 -12 -14 -27 -28 l-28 -24 24
28 c23 25 31 32 31 24z m6310 -10 c0 -2 -10 -12 -22 -23 l-23 -19 19 23 c18
21 26 27 26 19z m775 -17 c10 -11 16 -20 13 -20 -3 0 -13 9 -23 20 -10 11 -16
20 -13 20 3 0 13 -9 23 -20z m-6284 -37 c13 -16 12 -17 -3 -4 -10 7 -18 15
-18 17 0 8 8 3 21 -13z m-851 3 c0 -2 -8 -10 -17 -17 -16 -13 -17 -12 -4 4 13
16 21 21 21 13z m6320 0 c0 -2 -8 -10 -17 -17 -16 -13 -17 -12 -4 4 13 16 21
21 21 13z m870 -36 c30 -43 18 -37 -16 7 -15 20 -23 33 -16 29 6 -3 21 -20 32
-36z m-6300 -20 c12 -16 19 -30 16 -30 -2 0 -14 14 -26 30 -12 17 -19 30 -16
30 2 0 14 -13 26 -30z m-920 16 c0 -2 -8 -10 -17 -17 -16 -13 -17 -12 -4 4 13
16 21 21 21 13z m6300 -30 c0 -2 -8 -10 -17 -17 -16 -13 -17 -12 -4 4 13 16
21 21 21 13z m-5240 -196 c6 -11 8 -20 6 -20 -3 0 -10 9 -16 20 -6 11 -8 20
-6 20 3 0 10 -9 16 -20z m5100 -10 c-6 -11 -13 -20 -16 -20 -2 0 0 9 6 20 6
11 13 20 16 20 2 0 0 -9 -6 -20z m1220 -10 c6 -11 8 -20 6 -20 -3 0 -10 9 -16
20 -6 11 -8 20 -6 20 3 0 10 -9 16 -20z m-196 -52 c69 -80 97 -207 56 -248
-12 -12 -26 -18 -32 -14 -19 12 -121 238 -120 267 2 68 35 67 96 -5z m-7049
12 c8 -34 -38 -142 -95 -225 -27 -39 -36 -45 -66 -45 -50 0 -62 35 -33 93 49
97 140 207 169 207 12 0 21 -10 25 -30z m955 10 c6 -11 8 -20 6 -20 -3 0 -10
9 -16 20 -6 11 -8 20 -6 20 3 0 10 -9 16 -20z m-1275 -20 c-9 -16 -18 -30 -21
-30 -2 0 2 14 11 30 9 17 18 30 21 30 2 0 -2 -13 -11 -30z m6315 10 c-6 -11
-13 -20 -16 -20 -2 0 0 9 6 20 6 11 13 20 16 20 2 0 0 -9 -6 -20z m1300 -50
c6 -11 8 -20 6 -20 -3 0 -10 9 -16 20 -6 11 -8 20 -6 20 3 0 10 -9 16 -20z
m-6295 -20 c9 -16 13 -30 11 -30 -3 0 -12 14 -21 30 -9 17 -13 30 -11 30 3 0
12 -13 21 -30z m4933 -45 c-12 -24 -23 -43 -26 -41 -4 5 36 86 43 86 3 0 -5
-20 -17 -45z m-6327 -42 c-12 -20 -14 -14 -5 12 4 9 9 14 11 11 3 -2 0 -13 -6
-23z m1439 -8 c0 -5 -5 -3 -10 5 -5 8 -10 20 -10 25 0 6 5 3 10 -5 5 -8 10
-19 10 -25z m6320 -30 c0 -5 -5 -3 -10 5 -5 8 -10 20 -10 25 0 6 5 3 10 -5 5
-8 10 -19 10 -25z m-7799 -52 c-12 -20 -14 -14 -5 12 4 9 9 14 11 11 3 -2 0
-13 -6 -23z m7647 -125 c14 -14 16 -67 3 -87 -11 -18 -65 -19 -85 -1 -36 29
-5 100 43 100 15 0 32 -5 39 -12z m-7414 -51 c17 -48 -23 -88 -71 -71 -22 7
-29 17 -31 42 -5 45 13 64 57 60 29 -2 38 -8 45 -31z m5853 -59 c-3 -8 -6 -5
-6 6 -1 11 2 17 5 13 3 -3 4 -12 1 -19z m-4350 -30 c-3 -8 -6 -5 -6 6 -1 11 2
17 5 13 3 -3 4 -12 1 -19z m-10 -40 c-3 -8 -6 -5 -6 6 -1 11 2 17 5 13 3 -3 4
-12 1 -19z m6210 -40 c-3 -8 -6 -5 -6 6 -1 11 2 17 5 13 3 -3 4 -12 1 -19z
m-1750 -20 c-3 -8 -6 -5 -6 6 -1 11 2 17 5 13 3 -3 4 -12 1 -19z m-4490 -70
c-3 -8 -6 -5 -6 6 -1 11 2 17 5 13 3 -3 4 -12 1 -19z m4440 0 c-3 -8 -6 -5 -6
6 -1 11 2 17 5 13 3 -3 4 -12 1 -19z m23 -44 c0 -8 -4 -12 -10 -9 -5 3 -10 10
-10 16 0 5 5 9 10 9 6 0 10 -7 10 -16z m-4480 -39 c0 -5 -5 -3 -10 5 -5 8 -10
20 -10 25 0 6 5 3 10 -5 5 -8 10 -19 10 -25z m6297 13 c-3 -8 -6 -5 -6 6 -1
11 2 17 5 13 3 -3 4 -12 1 -19z m-8140 -20 c-3 -8 -6 -5 -6 6 -1 11 2 17 5 13
3 -3 4 -12 1 -19z m8150 -30 c-3 -8 -6 -5 -6 6 -1 11 2 17 5 13 3 -3 4 -12 1
-19z m-8170 -60 c-3 -8 -6 -5 -6 6 -1 11 2 17 5 13 3 -3 4 -12 1 -19z m8190
-40 c-3 -8 -6 -5 -6 6 -1 11 2 17 5 13 3 -3 4 -12 1 -19z m-8200 -10 c-3 -8
-6 -5 -6 6 -1 11 2 17 5 13 3 -3 4 -12 1 -19z m8210 -40 c-3 -8 -6 -5 -6 6 -1
11 2 17 5 13 3 -3 4 -12 1 -19z m-8220 -20 c-3 -8 -6 -5 -6 6 -1 11 2 17 5 13
3 -3 4 -12 1 -19z m8230 -40 c-3 -8 -6 -5 -6 6 -1 11 2 17 5 13 3 -3 4 -12 1
-19z m-8240 -20 c-3 -8 -6 -5 -6 6 -1 11 2 17 5 13 3 -3 4 -12 1 -19z m8250
-50 c-3 -7 -5 -2 -5 12 0 14 2 19 5 13 2 -7 2 -19 0 -25z m-8260 -10 c-3 -8
-6 -5 -6 6 -1 11 2 17 5 13 3 -3 4 -12 1 -19z m8270 -50 c-3 -8 -6 -5 -6 6 -1
11 2 17 5 13 3 -3 4 -12 1 -19z m-8280 -20 c-3 -7 -5 -2 -5 12 0 14 2 19 5 13
2 -7 2 -19 0 -25z m8290 -60 c-3 -7 -5 -2 -5 12 0 14 2 19 5 13 2 -7 2 -19 0
-25z m-8300 -20 c-3 -7 -5 -2 -5 12 0 14 2 19 5 13 2 -7 2 -19 0 -25z m8310
-55 c-3 -10 -5 -4 -5 12 0 17 2 24 5 18 2 -7 2 -21 0 -30z m-8320 -30 c-3 -10
-5 -4 -5 12 0 17 2 24 5 18 2 -7 2 -21 0 -30z m8330 -50 c-3 -10 -5 -4 -5 12
0 17 2 24 5 18 2 -7 2 -21 0 -30z m-8340 -40 c-3 -10 -5 -4 -5 12 0 17 2 24 5
18 2 -7 2 -21 0 -30z m8350 -50 c-3 -10 -5 -4 -5 12 0 17 2 24 5 18 2 -7 2
-21 0 -30z m-8360 -70 c-3 -10 -5 -2 -5 17 0 19 2 27 5 18 2 -10 2 -26 0 -35z
m8370 -40 c-3 -10 -5 -2 -5 17 0 19 2 27 5 18 2 -10 2 -26 0 -35z m-8380 -85
c-2 -13 -4 -5 -4 17 -1 22 1 32 4 23 2 -10 2 -28 0 -40z m8390 -40 c-2 -13 -4
-5 -4 17 -1 22 1 32 4 23 2 -10 2 -28 0 -40z m-8400 -110 c-2 -13 -4 -3 -4 22
0 25 2 35 4 23 2 -13 2 -33 0 -45z m8410 -55 c-2 -16 -4 -5 -4 22 0 28 2 40 4
28 2 -13 2 -35 0 -50z m-7099 -28 c110 -7 329 -37 447 -63 l80 -17 -3 -55 c-1
-30 -11 -237 -22 -460 -70 -1416 -133 -2986 -211 -5214 l-21 -618 -402 -687
c-221 -377 -566 -965 -767 -1305 l-364 -619 -7 904 c-11 1472 8 4648 42 6879
14 957 17 1030 44 1082 11 24 35 51 53 61 69 39 451 103 698 116 145 8 223 7
433 -4z m6382 -11 c147 -15 369 -53 514 -88 l91 -22 7 -74 c4 -41 12 -457 17
-925 6 -467 16 -1192 21 -1610 30 -2251 33 -6304 5 -6273 -7 7 -348 588 -759
1291 l-748 1277 -14 388 c-106 2919 -156 4153 -209 5217 -14 270 -28 549 -31
621 l-7 131 139 27 c351 66 623 78 974 40z m-7703 -156 c-2 -29 -3 -8 -3 47 0
55 1 79 3 53 2 -26 2 -71 0 -100z m8430 -45 c-2 -21 -4 -4 -4 37 0 41 2 58 4
38 2 -21 2 -55 0 -75z m10 -445 c-1 -46 -3 -11 -3 77 0 88 2 125 3 83 2 -42 2
-114 0 -160z m-8450 -40 c-1 -40 -3 -8 -3 72 0 80 2 112 3 73 2 -40 2 -106 0
-145z m4592 168 c37 -20 101 -92 101 -114 0 -24 -36 -62 -58 -62 -30 0 -61 29
-87 80 -28 55 -31 80 -13 98 15 15 23 15 57 -2z m-84 -511 c273 -36 512 -119
773 -268 72 -41 76 -44 190 -212 137 -202 188 -295 235 -431 131 -377 204
-1136 252 -2609 3 -99 12 -337 20 -530 48 -1158 93 -3837 120 -6995 2 -278 8
-557 13 -620 19 -230 -19 -384 -111 -451 -72 -52 -150 -69 -372 -79 -110 -6
-279 -14 -375 -20 -96 -5 -309 -12 -474 -16 l-298 -7 6 109 c3 60 19 298 34
529 14 231 27 492 27 580 0 146 -2 164 -23 210 -30 65 -73 108 -136 137 -44
19 -67 23 -166 23 -101 0 -121 -3 -164 -24 -141 -70 -175 -167 -157 -451 6
-91 17 -329 26 -530 8 -201 17 -414 20 -474 l6 -109 -333 7 c-336 7 -764 28
-914 45 -107 12 -172 41 -229 102 -54 58 -82 117 -101 217 -43 223 19 5294 95
7772 0 8 5 98 10 200 6 102 15 316 21 475 14 382 56 1170 75 1415 28 350 74
697 117 885 48 210 144 414 306 655 110 164 110 164 327 262 228 104 497 182
715 207 124 14 341 12 465 -4z m-4518 -257 c-1 -46 -3 -11 -3 77 0 88 2 125 3
83 2 -42 2 -114 0 -160z m8470 -40 c-1 -46 -3 -11 -3 77 0 88 2 125 3 83 2
-42 2 -114 0 -160z m-8480 -640 c-1 -51 -3 -10 -3 92 0 102 2 143 3 93 2 -51
2 -135 0 -185z m8490 -40 c-1 -51 -3 -10 -3 92 0 102 2 143 3 93 2 -51 2 -135
0 -185z m577 -187 c4 -5 -3 -7 -14 -4 -23 6 -26 13 -6 13 8 0 17 -4 20 -9z
m-56 -6815 c17 -21 17 -21 -5 -2 l-23 19 2 3396 3 3396 2 -3394 c3 -3215 4
-3396 21 -3415z m92 6769 c0 -5 -5 -3 -10 5 -5 8 -10 20 -10 25 0 6 5 3 10 -5
5 -8 10 -19 10 -25z m-9113 -502 c-1 -59 -3 -13 -3 102 0 116 2 164 3 108 2
-56 2 -151 0 -210z m8510 -50 c-1 -60 -3 -11 -3 107 0 118 2 167 3 108 2 -60
2 -156 0 -215z m-8520 -920 c-1 -76 -3 -14 -3 137 0 151 2 213 3 138 2 -76 2
-200 0 -275z m8530 -55 c-1 -79 -3 -17 -3 137 0 154 2 218 3 143 2 -75 2 -201
0 -280z m-9609 -195 c-10 -2 -18 -9 -18 -15 0 -6 -3 -9 -6 -5 -10 10 6 27 24
26 15 -1 15 -2 0 -6z m73 -20 c13 -16 12 -17 -3 -4 -17 13 -22 21 -14 21 2 0
10 -8 17 -17z m4 -5310 c-9 -8 -11 -8 -5 -1 7 8 11 917 12 2653 l3 2640 2
-2640 c3 -2334 1 -2641 -12 -2652z m992 4155 c-1 -123 -2 -23 -2 222 0 245 1
345 2 223 2 -123 2 -323 0 -445z m8550 -110 c-1 -128 -2 -24 -2 232 0 256 1
360 2 233 2 -128 2 -338 0 -465z m-6147 -444 c-35 -1243 -72 -3436 -74 -4461
l-1 -733 -1577 0 c-868 0 -1578 2 -1578 5 0 10 419 727 1613 2760 527 898
1172 1996 1550 2642 39 67 73 121 74 119 1 -1 -2 -150 -7 -332z m4055 -189
c164 -280 710 -1210 1213 -2065 1167 -1984 1712 -2917 1712 -2931 0 -9 -373
-10 -1567 -5 -862 4 -1568 8 -1569 9 -1 1 -6 454 -13 1007 -16 1373 -37 2606
-61 3550 -18 732 -23 955 -18 950 3 -3 139 -234 303 -515z m2092 -3153 c-1
-103 -2 -16 -2 193 0 209 1 293 2 187 2 -106 2 -277 0 -380z m-8554 -203 c-5
-5 -6 146 -3 334 l5 342 3 -334 c1 -184 -1 -338 -5 -342z m9127 216 c-7 -8
-24 -14 -39 -14 l-26 2 28 4 c16 3 31 11 34 19 3 8 8 13 11 10 3 -3 -1 -12 -8
-21z m-540 -245 c6 -11 8 -20 6 -20 -3 0 -10 9 -16 20 -6 11 -8 20 -6 20 3 0
10 -9 16 -20z m-9660 -15 c14 -19 14 -19 -2 -6 -10 7 -18 18 -18 24 0 6 1 8 3
6 1 -2 9 -13 17 -24z m1040 -15 c-6 -11 -13 -20 -16 -20 -2 0 0 9 6 20 6 11
13 20 16 20 2 0 0 -9 -6 -20z m-30 -50 c-6 -11 -13 -20 -16 -20 -2 0 0 9 6 20
6 11 13 20 16 20 2 0 0 -9 -6 -20z m8720 -40 c6 -11 8 -20 6 -20 -3 0 -10 9
-16 20 -6 11 -8 20 -6 20 3 0 10 -9 16 -20z m30 -50 c6 -11 8 -20 6 -20 -3 0
-10 9 -16 20 -6 11 -8 20 -6 20 3 0 10 -9 16 -20z m-8820 -30 c-6 -11 -13 -20
-16 -20 -2 0 0 9 6 20 6 11 13 20 16 20 2 0 0 -9 -6 -20z m9178 -31 c-15 -9
-18 -26 -18 -120 0 -61 5 -120 11 -132 10 -21 10 -21 -5 -3 -12 15 -16 45 -16
131 0 108 7 135 35 135 5 0 2 -5 -7 -11z m-9208 -19 c-6 -11 -13 -20 -16 -20
-2 0 0 9 6 20 6 11 13 20 16 20 2 0 0 -9 -6 -20z m8920 -40 c6 -11 8 -20 6
-20 -3 0 -10 9 -16 20 -6 11 -8 20 -6 20 3 0 10 -9 16 -20z m-8990 -80 c-6
-11 -13 -20 -16 -20 -2 0 0 9 6 20 6 11 13 20 16 20 2 0 0 -9 -6 -20z m9060
-40 c6 -11 8 -20 6 -20 -3 0 -10 9 -16 20 -6 11 -8 20 -6 20 3 0 10 -9 16 -20z
m-9090 -10 c-6 -11 -13 -20 -16 -20 -2 0 0 9 6 20 6 11 13 20 16 20 2 0 0 -9
-6 -20z m9120 -40 c6 -11 8 -20 6 -20 -3 0 -10 9 -16 20 -6 11 -8 20 -6 20 3
0 10 -9 16 -20z m270 -35 c-7 -8 -20 -15 -29 -14 -11 0 -9 3 7 9 12 5 22 15
22 21 0 7 3 9 6 6 4 -4 1 -13 -6 -22z m-9460 -45 c-6 -11 -13 -20 -16 -20 -2
0 0 9 6 20 6 11 13 20 16 20 2 0 0 -9 -6 -20z m-707 3 c-7 -2 -19 -2 -25 0 -7
3 -2 5 12 5 14 0 19 -2 13 -5z m51 -25 c13 -19 16 -54 14 -208 l-2 -185 -6
193 c-5 177 -7 195 -24 208 -11 8 -15 14 -8 14 6 0 18 -10 26 -22z m9916 -18
c6 -11 8 -20 6 -20 -3 0 -10 9 -16 20 -6 11 -8 20 -6 20 3 0 10 -9 16 -20z
m-9290 -10 c-6 -11 -13 -20 -16 -20 -2 0 0 9 6 20 6 11 13 20 16 20 2 0 0 -9
-6 -20z m9320 -40 c6 -11 8 -20 6 -20 -3 0 -10 9 -16 20 -6 11 -8 20 -6 20 3
0 10 -9 16 -20z m-9390 -80 c-6 -11 -13 -20 -16 -20 -2 0 0 9 6 20 6 11 13 20
16 20 2 0 0 -9 -6 -20z m9460 -40 c6 -11 8 -20 6 -20 -3 0 -10 9 -16 20 -6 11
-8 20 -6 20 3 0 10 -9 16 -20z m-9490 -10 c-6 -11 -13 -20 -16 -20 -2 0 0 9 6
20 6 11 13 20 16 20 2 0 0 -9 -6 -20z m10238 -56 c12 -8 22 -19 22 -25 0 -5
-9 0 -21 12 -15 15 -30 20 -54 17 -19 -2 -31 0 -29 4 9 14 58 9 82 -8z m-678
-54 c6 -11 8 -20 6 -20 -3 0 -10 9 -16 20 -6 11 -8 20 -6 20 3 0 10 -9 16 -20z
m-9630 -10 c-6 -11 -13 -20 -16 -20 -2 0 0 9 6 20 6 11 13 20 16 20 2 0 0 -9
-6 -20z m10337 -342 c-1 -68 -3 -13 -3 122 0 135 2 190 3 123 2 -68 2 -178 0
-245z m-677 302 c6 -11 8 -20 6 -20 -3 0 -10 9 -16 20 -6 11 -8 20 -6 20 3 0
10 -9 16 -20z m-10177 -49 c-4 -6 -43 30 -43 40 0 5 10 -2 23 -14 13 -12 22
-24 20 -26z m447 -31 c-6 -11 -13 -20 -16 -20 -2 0 0 9 6 20 6 11 13 20 16 20
2 0 0 -9 -6 -20z m9800 -40 c6 -11 8 -20 6 -20 -3 0 -10 9 -16 20 -6 11 -8 20
-6 20 3 0 10 -9 16 -20z m-9830 -10 c-6 -11 -13 -20 -16 -20 -2 0 0 9 6 20 6
11 13 20 16 20 2 0 0 -9 -6 -20z m9860 -40 c6 -11 8 -20 6 -20 -3 0 -10 9 -16
20 -6 11 -8 20 -6 20 3 0 10 -9 16 -20z m-9900 -30 c-6 -11 -13 -20 -16 -20
-2 0 0 9 6 20 6 11 13 20 16 20 2 0 0 -9 -6 -20z m9970 -90 c6 -11 8 -20 6
-20 -3 0 -10 9 -16 20 -6 11 -8 20 -6 20 3 0 10 -9 16 -20z m-10040 -30 c-6
-11 -13 -20 -16 -20 -2 0 0 9 6 20 6 11 13 20 16 20 2 0 0 -9 -6 -20z m10110
-90 c6 -11 8 -20 6 -20 -3 0 -10 9 -16 20 -6 11 -8 20 -6 20 3 0 10 -9 16 -20z
m364 -39 c-3 -3 -15 6 -27 18 l-22 24 27 -19 c14 -10 24 -21 22 -23z m-10544
9 c-6 -11 -13 -20 -16 -20 -2 0 0 9 6 20 6 11 13 20 16 20 2 0 0 -9 -6 -20z
m10600 -10 c-8 -6 -22 -10 -30 -10 -8 0 -4 6 10 13 27 15 44 12 20 -3z m-390
-10 c6 -11 8 -20 6 -20 -3 0 -10 9 -16 20 -6 11 -8 20 -6 20 3 0 10 -9 16 -20z
m-10250 -50 c-6 -11 -13 -20 -16 -20 -2 0 0 9 6 20 6 11 13 20 16 20 2 0 0 -9
-6 -20z m-40 -70 c-6 -11 -13 -20 -16 -20 -2 0 0 9 6 20 6 11 13 20 16 20 2 0
0 -9 -6 -20z m10360 0 c6 -11 8 -20 6 -20 -3 0 -10 9 -16 20 -6 11 -8 20 -6
20 3 0 10 -9 16 -20z m30 -50 c6 -11 8 -20 6 -20 -3 0 -10 9 -16 20 -6 11 -8
20 -6 20 3 0 10 -9 16 -20z m-10460 -70 c-6 -11 -13 -20 -16 -20 -2 0 0 9 6
20 6 11 13 20 16 20 2 0 0 -9 -6 -20z m-1122 -44 c-7 -8 -15 -12 -17 -11 -5 6
10 25 20 25 5 0 4 -6 -3 -14z m79 -8 l23 -21 0 -3617 c0 -2799 -3 -3619 -12
-3628 -7 -7 -23 -11 -38 -11 -23 1 -23 2 5 8 l30 6 3 3619 c1 2831 -1 3622
-10 3634 -7 8 -21 18 -33 22 -11 5 -14 9 -6 9 8 1 25 -9 38 -21z m11573 2 c6
-11 8 -20 6 -20 -3 0 -10 9 -16 20 -6 11 -8 20 -6 20 3 0 10 -9 16 -20z
m-10570 -20 c-6 -11 -13 -20 -16 -20 -2 0 0 9 6 20 6 11 13 20 16 20 2 0 0 -9
-6 -20z m10600 -30 c6 -11 8 -20 6 -20 -3 0 -10 9 -16 20 -6 11 -8 20 -6 20 3
0 10 -9 16 -20z m-10640 -40 c-6 -11 -13 -20 -16 -20 -2 0 0 9 6 20 6 11 13
20 16 20 2 0 0 -9 -6 -20z m-40 -70 c-6 -11 -13 -20 -16 -20 -2 0 0 9 6 20 6
11 13 20 16 20 2 0 0 -9 -6 -20z m10750 -10 c6 -11 8 -20 6 -20 -3 0 -10 9
-16 20 -6 11 -8 20 -6 20 3 0 10 -9 16 -20z m30 -50 c6 -11 8 -20 6 -20 -3 0
-10 9 -16 20 -6 11 -8 20 -6 20 3 0 10 -9 16 -20z m-10870 -100 c-6 -11 -13
-20 -16 -20 -2 0 0 9 6 20 6 11 13 20 16 20 2 0 0 -9 -6 -20z m-40 -70 c-6
-11 -13 -20 -16 -20 -2 0 0 9 6 20 6 11 13 20 16 20 2 0 0 -9 -6 -20z m3518
-524 c-1 -288 -6 -527 -9 -530 -9 -10 -1166 -26 -1994 -29 -813 -2 -879 0
-1255 39 -251 26 -385 68 -454 144 -45 50 -59 101 -46 166 21 107 43 158 147
334 43 74 112 195 153 268 l73 132 1695 0 1694 0 -4 -524z m7445 354 c48 -85
129 -236 178 -335 80 -158 92 -189 96 -246 6 -69 -12 -124 -54 -161 -78 -71
-355 -135 -678 -157 -348 -24 -1613 -22 -2747 5 l-288 7 0 523 0 524 1702 -2
1703 -3 88 -155z m-11003 100 c-6 -11 -13 -20 -16 -20 -2 0 0 9 6 20 6 11 13
20 16 20 2 0 0 -9 -6 -20z m11190 -180 c6 -11 8 -20 6 -20 -3 0 -10 9 -16 20
-6 11 -8 20 -6 20 3 0 10 -9 16 -20z m-11320 -40 c-6 -11 -13 -20 -16 -20 -2
0 0 9 6 20 6 11 13 20 16 20 2 0 0 -9 -6 -20z m11390 -90 c11 -22 18 -40 15
-40 -2 0 -14 18 -25 40 -11 22 -18 40 -15 40 2 0 14 -18 25 -40z m-11487 -85
c-15 -30 -29 -53 -31 -51 -4 5 46 106 53 106 3 0 -7 -25 -22 -55z m11556 -60
c0 -5 -6 1 -14 15 -8 14 -14 30 -14 35 0 6 6 -1 14 -15 8 -14 14 -29 14 -35z
m-11642 -167 c-3 -8 -6 -5 -6 6 -1 11 2 17 5 13 3 -3 4 -12 1 -19z m11710 -30
c-3 -8 -6 -5 -6 6 -1 11 2 17 5 13 3 -3 4 -12 1 -19z m-11720 -90 c-2 -18 -4
-6 -4 27 0 33 2 48 4 33 2 -15 2 -42 0 -60z m11730 10 c-3 -8 -6 -5 -6 6 -1
11 2 17 5 13 3 -3 4 -12 1 -19z m-10 -70 c-3 -8 -6 -5 -6 6 -1 11 2 17 5 13 3
-3 4 -12 1 -19z m-27 -67 c-5 -11 -15 -23 -21 -27 -6 -3 -3 5 6 20 20 30 30
35 15 7z m-11610 -56 c13 -14 21 -25 18 -25 -2 0 -15 11 -28 25 -13 14 -21 25
-18 25 2 0 15 -11 28 -25z m11580 11 c0 -2 -8 -10 -17 -17 -16 -13 -17 -12 -4
4 13 16 21 21 21 13z m-40 -30 c0 -2 -8 -10 -17 -17 -16 -13 -17 -12 -4 4 13
16 21 21 21 13z m-233 -102 c-3 -3 -12 -4 -19 -1 -8 3 -5 6 6 6 11 1 17 -2 13
-5z m-50 -10 c-3 -3 -12 -4 -19 -1 -8 3 -5 6 6 6 11 1 17 -2 13 -5z m-10910
-10 c-3 -3 -12 -4 -19 -1 -8 3 -5 6 6 6 11 1 17 -2 13 -5z m10860 0 c-3 -3
-12 -4 -19 -1 -8 3 -5 6 6 6 11 1 17 -2 13 -5z m-10800 -10 c-3 -3 -12 -4 -19
-1 -8 3 -5 6 6 6 11 1 17 -2 13 -5z m10750 0 c-3 -3 -12 -4 -19 -1 -8 3 -5 6
6 6 11 1 17 -2 13 -5z m-10664 -11 c-7 -2 -21 -2 -30 0 -10 3 -4 5 12 5 17 0
24 -2 18 -5z m10600 0 c-7 -2 -19 -2 -25 0 -7 3 -2 5 12 5 14 0 19 -2 13 -5z
m-10510 -10 c-7 -2 -21 -2 -30 0 -10 3 -4 5 12 5 17 0 24 -2 18 -5z m10430 0
c-7 -2 -19 -2 -25 0 -7 3 -2 5 12 5 14 0 19 -2 13 -5z m-10335 -10 c-10 -2
-26 -2 -35 0 -10 3 -2 5 17 5 19 0 27 -2 18 -5z m7135 0 c-7 -2 -21 -2 -30 0
-10 3 -4 5 12 5 17 0 24 -2 18 -5z m3115 0 c-10 -2 -26 -2 -35 0 -10 3 -2 5
17 5 19 0 27 -2 18 -5z m-10115 -10 c-13 -2 -33 -2 -45 0 -13 2 -3 4 22 4 25
0 35 -2 23 -4z m2773 -140 c-3 -82 -9 -281 -12 -444 l-6 -296 -112 -12 c-290
-32 -1454 -33 -1641 -1 -33 5 -81 12 -106 15 l-46 6 -6 292 c-4 161 -7 354 -7
430 l0 137 368 1 c202 1 567 5 812 8 245 4 516 8 604 9 l158 2 -6 -147z m121
85 c-2 -13 -4 -3 -4 22 0 25 2 35 4 23 2 -13 2 -33 0 -45z m4130 10 c-2 -13
-4 -5 -4 17 -1 22 1 32 4 23 2 -10 2 -28 0 -40z m1327 35 l728 -6 -7 -426 c-4
-234 -8 -427 -10 -429 -8 -9 -257 -23 -591 -33 -293 -9 -478 -9 -805 0 -233 6
-443 14 -465 18 l-42 5 -6 267 c-3 146 -9 347 -12 445 l-6 179 243 -6 c134 -4
572 -10 973 -14z m1639 10 c-13 -2 -33 -2 -45 0 -13 2 -3 4 22 4 25 0 35 -2
23 -4z m-9775 -10 c-21 -2 -55 -2 -75 0 -21 2 -4 4 37 4 41 0 58 -2 38 -4z
m9575 0 c-24 -2 -62 -2 -85 0 -24 2 -5 4 42 4 47 0 66 -2 43 -4z m-9068 -171
l1 -162 -3 160 -3 159 -63 4 -62 4 65 -1 65 -1 0 -163z m8588 161 l-113 -4 -2
-157 -2 -157 -3 150 c-2 82 -1 155 1 162 4 10 34 12 118 11 l113 -2 -112 -3z
m-6336 -125 c-2 -24 -4 -7 -4 37 0 44 2 63 4 43 2 -21 2 -57 0 -80z m3990 10
c-2 -13 -4 -3 -4 22 0 25 2 35 4 23 2 -13 2 -33 0 -45z m-3990 -205 c-2 -16
-4 -5 -4 22 0 28 2 40 4 28 2 -13 2 -35 0 -50z m4060 -125 c-2 -35 -3 -9 -3
57 0 66 1 94 3 63 2 -32 2 -86 0 -120z m-4150 -10 c-2 -35 -3 -9 -3 57 0 66 1
94 3 63 2 -32 2 -86 0 -120z m6913 142 c11 -11 20 -26 19 -32 0 -7 -5 -3 -11
8 -5 12 -20 27 -32 32 -11 6 -15 11 -8 11 6 1 21 -8 32 -19z m-72 -2554 c17
-21 17 -21 -5 -2 l-23 19 2 1271 3 1271 2 -1269 c3 -1191 4 -1271 21 -1290z
m-6741 2462 c-3 -8 -6 -5 -6 6 -1 11 2 17 5 13 3 -3 4 -12 1 -19z m3980 -20
c-3 -7 -5 -2 -5 12 0 14 2 19 5 13 2 -7 2 -19 0 -25z m-3970 -30 c-3 -8 -6 -5
-6 6 -1 11 2 17 5 13 3 -3 4 -12 1 -19z m7426 -135 c-7 -2 -19 -2 -25 0 -7 3
-2 5 12 5 14 0 19 -2 13 -5z m42 -21 c-3 -3 -11 0 -18 7 -9 10 -8 11 6 5 10
-3 15 -9 12 -12z m-9728 -219 c-1 -43 -3 -10 -3 72 0 83 2 118 3 78 2 -40 2
-107 0 -150z m8450 -10 c-1 -43 -3 -8 -3 77 0 85 2 120 3 78 2 -43 2 -113 0
-155z m-6027 130 c0 -8 -9 0 -50 45 l-45 47 48 -45 c26 -24 47 -45 47 -47z
m7327 -3685 c-1 -689 -2 -126 -2 1252 0 1378 1 1941 2 1253 2 -689 2 -1817 0
-2505z m-3617 3729 c0 -2 -10 -12 -22 -23 l-23 -19 19 23 c18 21 26 27 26 19z
m-55 -47 c-3 -5 -16 -15 -28 -21 -19 -9 -19 -8 3 10 28 23 34 26 25 11z m232
-157 c-2 -32 -3 -8 -3 52 0 61 1 87 3 58 2 -29 2 -78 0 -110z m-4170 -10 c-2
-32 -3 -8 -3 52 0 61 1 87 3 58 2 -29 2 -78 0 -110z m3770 91 c-3 -3 -12 -4
-19 -1 -8 3 -5 6 6 6 11 1 17 -2 13 -5z m-3234 -11 c-7 -2 -19 -2 -25 0 -7 3
-2 5 12 5 14 0 19 -2 13 -5z m3180 0 c-7 -2 -19 -2 -25 0 -7 3 -2 5 12 5 14 0
19 -2 13 -5z m-2603 -23 c151 -6 317 -13 368 -16 l92 -6 0 -69 0 -69 -445 0
-445 0 0 91 0 92 78 -6 c42 -4 201 -11 352 -17z m2493 13 l-33 -4 0 -74 c0
-40 5 -76 10 -78 6 -3 5 -4 -2 -3 -13 3 -24 125 -14 153 3 8 19 12 38 11 l33
-1 -32 -4z m-153 -73 l0 -70 -450 0 -450 0 0 53 0 54 288 8 c158 4 337 11 397
15 61 3 134 7 163 8 l52 2 0 -70z m-1643 20 c3 -10 2 -11 -4 -3 -5 6 -33 14
-63 16 l-55 4 59 -1 c44 -1 60 -5 63 -16z m631 -51 l3 -67 -56 -56 c-60 -60
-69 -58 -62 10 4 38 4 38 5 -7 l2 -46 50 50 c50 49 50 50 50 113 l0 64 -45 0
c-44 0 -45 -1 -46 -32 -1 -25 -3 -27 -6 -10 -8 43 3 53 54 50 l48 -3 3 -66z
m3862 -23 c0 -2 -8 -10 -17 -17 -16 -13 -17 -12 -4 4 13 16 21 21 21 13z
m-8405 -24 c-3 -3 -11 0 -18 7 -9 10 -8 11 6 5 10 -3 15 -9 12 -12z m93 -9
c-10 -2 -26 -2 -35 0 -10 3 -2 5 17 5 19 0 27 -2 18 -5z m8230 0 c-10 -2 -26
-2 -35 0 -10 3 -2 5 17 5 19 0 27 -2 18 -5z m-8181 -115 c-2 -24 -4 -7 -4 37
0 44 2 63 4 43 2 -21 2 -57 0 -80z m1006 97 l637 0 0 -37 0 -38 -760 0 -760 0
0 45 0 46 123 -8 c67 -4 409 -8 760 -8z m875 8 c-16 -2 -40 -2 -55 0 -16 2 -3
4 27 4 30 0 43 -2 28 -4z m4400 0 c-16 -2 -40 -2 -55 0 -16 2 -3 4 27 4 30 0
43 -2 28 -4z m1682 -43 l0 -40 -760 0 -760 0 0 34 0 35 533 -5 c292 -3 615 -1
717 4 102 5 204 10 228 10 l42 2 0 -40z m-5471 17 c-2 -2 -17 -11 -34 -21
l-30 -17 24 20 c13 12 28 21 34 21 6 0 8 -1 6 -3z m1283 -133 c-7 -12 -11 -10
-20 13 -11 26 -11 27 3 9 14 -18 15 -14 17 50 l2 69 3 -63 c2 -34 0 -69 -5
-78z m-56 74 l29 -33 -32 29 c-31 28 -38 36 -30 36 2 0 16 -15 33 -32z m-1296
19 c0 -2 -10 -12 -22 -23 l-23 -19 19 23 c18 21 26 27 26 19z m3090 -43 c103
-41 118 -163 30 -238 l-32 -26 -509 0 c-541 0 -539 0 -582 48 -61 67 -28 185
63 221 15 6 213 10 507 10 422 1 488 -1 523 -15z m188 -19 c-3 -3 -9 2 -12 12
-6 14 -5 15 5 6 7 -7 10 -15 7 -18z m-2125 -9 c52 -22 79 -59 85 -114 5 -59
-15 -105 -61 -132 -31 -19 -54 -20 -541 -20 -493 0 -510 1 -541 20 -64 39 -83
129 -42 191 47 70 36 69 580 69 391 0 494 -3 520 -14z m2767 -41 c14 -19 14
-19 -2 -6 -10 7 -18 18 -18 24 0 6 1 8 3 6 1 -2 9 -13 17 -24z m-6296 -24 c-3
-3 -15 6 -27 18 l-22 24 27 -19 c14 -10 24 -21 22 -23z m1706 14 c-7 -8 -17
-15 -23 -15 -6 0 -2 7 9 15 25 19 30 19 14 0z m3967 -7 c-3 -8 -6 -5 -6 6 -1
11 2 17 5 13 3 -3 4 -12 1 -19z m2353 7 c-11 -13 -117 -15 -864 -13 l-851 3
850 2 c546 2 853 7 859 13 16 16 20 12 6 -5z m-5733 -27 c-3 -8 -6 -5 -6 6 -1
11 2 17 5 13 3 -3 4 -12 1 -19z m-1707 -42 c0 -2 -12 -11 -27 -20 l-28 -17 24
20 c23 21 31 25 31 17z m805 -6 c3 -6 -1 -7 -9 -4 -18 7 -21 14 -7 14 6 0 13
-4 16 -10z m36 -27 c13 -16 12 -17 -3 -4 -10 7 -18 15 -18 17 0 8 8 3 21 -13z
m4246 -5 c-3 -8 -6 -5 -6 6 -1 11 2 17 5 13 3 -3 4 -12 1 -19z m1043 8 c0 -2
-8 -10 -17 -17 -16 -13 -17 -12 -4 4 13 16 21 21 21 13z m-6190 -10 c0 -2 -8
-10 -17 -17 -16 -13 -17 -12 -4 4 13 16 21 21 21 13z m3219 -58 c-1 -62 -2
-63 -9 -18 -6 41 -3 80 6 80 2 0 3 -28 3 -62z m-2278 35 c13 -16 12 -17 -3 -4
-10 7 -18 15 -18 17 0 8 8 3 21 -13z m5209 4 c0 -2 -10 -12 -22 -23 l-23 -19
19 23 c18 21 26 27 26 19z m981 -14 c13 -16 12 -17 -3 -4 -10 7 -18 15 -18 17
0 8 8 3 21 -13z m-7171 4 c0 -2 -12 -14 -27 -28 l-28 -24 24 28 c23 25 31 32
31 24z m3769 -37 c11 -24 11 -24 -3 -6 -9 11 -16 24 -16 30 0 12 5 7 19 -24z
m-2723 -12 l29 -33 -32 29 c-31 28 -38 36 -30 36 2 0 16 -15 33 -32z m2691
-30 c-2 -13 -4 -3 -4 22 0 25 2 35 4 23 2 -13 2 -33 0 -45z m3553 -33 c47 -47
82 -85 80 -85 -3 0 -43 38 -90 85 -47 47 -82 85 -80 85 3 0 43 -38 90 -85z
m-2139 58 c-5 -10 -24 -31 -42 -48 -29 -27 -29 -25 7 17 42 51 50 58 35 31z
m909 -58 c-41 -41 -77 -75 -79 -75 -3 0 28 34 69 75 41 41 77 75 79 75 3 0
-28 -34 -69 -75z m-7902 51 c-7 -8 -15 -12 -17 -11 -5 6 10 25 20 25 5 0 4 -6
-3 -14z m2737 -26 c29 -23 93 -82 141 -133 393 -408 450 -894 163 -1398 -121
-212 -311 -440 -538 -644 -186 -168 -150 -163 -288 -42 -436 383 -697 781
-754 1151 -18 115 -6 314 25 421 67 228 214 448 409 611 l88 74 351 0 351 0
52 -40z m939 24 c3 -8 2 -12 -4 -9 -6 3 -10 10 -10 16 0 14 7 11 14 -7z m5250
-33 c209 -167 380 -420 442 -656 37 -138 39 -343 4 -485 -55 -227 -167 -439
-361 -680 -95 -118 -283 -309 -412 -418 l-87 -74 -92 80 c-131 112 -360 350
-446 460 -404 524 -457 1008 -160 1458 72 109 224 273 307 333 l44 31 350 0
349 0 62 -49z m-8843 22 c13 -16 12 -17 -3 -4 -10 7 -18 15 -18 17 0 8 8 3 21
-13z m1639 -38 c-24 -25 -46 -45 -49 -45 -3 0 15 20 39 45 24 25 46 45 49 45
3 0 -15 -20 -39 -45z m3930 20 c13 -14 21 -25 18 -25 -2 0 -15 11 -28 25 -13
14 -21 25 -18 25 2 0 15 -11 28 -25z m-1949 -12 c13 -16 12 -17 -3 -4 -10 7
-18 15 -18 17 0 8 8 3 21 -13z m-3612 -639 c-12 -15 -65 -19 -72 -6 -3 4 11 7
31 7 l37 0 5 325 5 325 3 -319 c2 -227 -1 -323 -9 -332z m4951 633 c0 -2 -10
-12 -22 -23 l-23 -19 19 23 c18 21 26 27 26 19z m680 -40 c12 -4 12 -6 -2 -6
-10 -1 -22 9 -28 22 -9 19 -9 20 2 6 7 -9 20 -18 28 -22z m1176 8 c-11 -8 -25
-15 -30 -15 -6 1 0 7 14 15 32 19 40 18 16 0z m-3116 -32 c0 -7 -39 17 -46 28
-3 6 5 3 20 -6 14 -10 26 -19 26 -22z m-754 -15 l29 -33 -32 29 c-31 28 -38
36 -30 36 2 0 16 -15 33 -32z m2751 26 c-3 -3 -12 -4 -19 -1 -8 3 -5 6 6 6 11
1 17 -2 13 -5z m776 -11 c-139 -2 -367 -2 -505 0 -139 1 -26 2 252 2 278 0
391 -1 253 -2z m-4893 -6 c0 -2 -12 -14 -27 -28 l-28 -24 24 28 c23 25 31 32
31 24z m3907 -109 c-2 -24 -4 -7 -4 37 0 44 2 63 4 43 2 -21 2 -57 0 -80z
m-949 85 c-136 -2 -361 -2 -500 0 -139 1 -28 2 247 2 275 0 389 -1 253 -2z
m489 -140 c-2 -27 -3 -5 -3 47 0 52 1 74 3 48 2 -27 2 -69 0 -95z m2703 134
c0 -2 -10 -12 -22 -23 l-23 -19 19 23 c18 21 26 27 26 19z m1435 -27 c10 -11
16 -20 13 -20 -3 0 -13 9 -23 20 -10 11 -16 20 -13 20 3 0 13 -9 23 -20z
m-6170 -10 c10 -11 16 -20 13 -20 -3 0 -13 9 -23 20 -10 11 -16 20 -13 20 3 0
13 -9 23 -20z m-1475 -4 c0 -2 -8 -10 -17 -17 -16 -13 -17 -12 -4 4 13 16 21
21 21 13z m6170 -10 c0 -2 -8 -10 -17 -17 -16 -13 -17 -12 -4 4 13 16 21 21
21 13z m1511 -23 c13 -16 12 -17 -3 -4 -10 7 -18 15 -18 17 0 8 8 3 21 -13z
m-1567 -53 c-15 -22 -29 -40 -31 -40 -5 0 3 15 29 53 30 43 31 32 2 -13z
m-4561 -19 c27 -46 14 -38 -18 12 -16 23 -22 37 -14 30 8 -6 22 -25 32 -42z
m-1619 14 c-9 -14 -18 -25 -21 -25 -5 0 5 18 20 38 17 22 18 13 1 -13z m7816
-45 c6 -11 8 -20 6 -20 -3 0 -10 9 -16 20 -6 11 -8 20 -6 20 3 0 10 -9 16 -20z
m-6160 -30 c6 -11 8 -20 6 -20 -3 0 -10 9 -16 20 -6 11 -8 20 -6 20 3 0 10 -9
16 -20z m2367 -22 c-3 -7 -5 -2 -5 12 0 14 2 19 5 13 2 -7 2 -19 0 -25z
m-4099 -33 c-12 -24 -23 -43 -26 -41 -4 5 36 86 43 86 3 0 -5 -20 -17 -45z
m3659 3 c-3 -7 -5 -2 -5 12 0 14 2 19 5 13 2 -7 2 -19 0 -25z m4283 -9 c12
-23 20 -43 18 -45 -3 -2 -14 17 -26 41 -27 56 -20 60 8 4z m-3853 -21 c-3 -8
-6 -5 -6 6 -1 11 2 17 5 13 3 -3 4 -12 1 -19z m-420 -20 c-3 -8 -6 -5 -6 6 -1
11 2 17 5 13 3 -3 4 -12 1 -19z m-1867 -43 c0 -5 -5 -3 -10 5 -5 8 -10 20 -10
25 0 6 5 3 10 -5 5 -8 10 -19 10 -25z m1899 -35 c11 -24 11 -24 -3 -6 -9 11
-16 24 -16 30 0 12 5 7 19 -24z m342 -18 c-5 -9 -19 -26 -32 -37 -17 -15 -15
-10 7 17 32 41 40 48 25 20z m-266 -66 c6 -4 1 -4 -10 2 -11 6 -29 21 -40 34
-19 22 -19 22 10 -2 17 -14 35 -29 40 -34z m2292 -88 c-3 -8 -6 -5 -6 6 -1 11
2 17 5 13 3 -3 4 -12 1 -19z m-6180 -20 c-3 -8 -6 -5 -6 6 -1 11 2 17 5 13 3
-3 4 -12 1 -19z m1980 -20 c-3 -8 -6 -5 -6 6 -1 11 2 17 5 13 3 -3 4 -12 1
-19z m4190 -20 c-3 -7 -5 -2 -5 12 0 14 2 19 5 13 2 -7 2 -19 0 -25z m1990 10
c-3 -8 -6 -5 -6 6 -1 11 2 17 5 13 3 -3 4 -12 1 -19z m-8170 -40 c-3 -7 -5 -2
-5 12 0 14 2 19 5 13 2 -7 2 -19 0 -25z m2000 -20 c-3 -7 -5 -2 -5 12 0 14 2
19 5 13 2 -7 2 -19 0 -25z m6180 -25 c-3 -10 -5 -2 -5 17 0 19 2 27 5 18 2
-10 2 -26 0 -35z m-2010 -10 c-3 -10 -5 -2 -5 17 0 19 2 27 5 18 2 -10 2 -26
0 -35z m-6180 -136 c-2 -23 -3 -1 -3 48 0 50 1 68 3 42 2 -26 2 -67 0 -90z
m6180 -64 c-3 -10 -5 -2 -5 17 0 19 2 27 5 18 2 -10 2 -26 0 -35z m2010 -10
c-3 -10 -5 -4 -5 12 0 17 2 24 5 18 2 -7 2 -21 0 -30z m-6180 -20 c-3 -10 -5
-4 -5 12 0 17 2 24 5 18 2 -7 2 -21 0 -30z m-2000 -25 c-3 -7 -5 -2 -5 12 0
14 2 19 5 13 2 -7 2 -19 0 -25z m6180 -20 c-3 -8 -6 -5 -6 6 -1 11 2 17 5 13
3 -3 4 -12 1 -19z m1990 -10 c-3 -8 -6 -5 -6 6 -1 11 2 17 5 13 3 -3 4 -12 1
-19z m-6180 -10 c-3 -8 -6 -5 -6 6 -1 11 2 17 5 13 3 -3 4 -12 1 -19z m-1980
-20 c-3 -8 -6 -5 -6 6 -1 11 2 17 5 13 3 -3 4 -12 1 -19z m6180 -20 c-3 -8 -6
-5 -6 6 -1 11 2 17 5 13 3 -3 4 -12 1 -19z m1970 0 c-3 -8 -6 -5 -6 6 -1 11 2
17 5 13 3 -3 4 -12 1 -19z m-6180 -10 c-3 -8 -6 -5 -6 6 -1 11 2 17 5 13 3 -3
4 -12 1 -19z m-3292 -35 c-11 -3 -27 -10 -35 -17 -13 -10 -13 -9 -1 7 7 9 23
16 35 16 20 -1 20 -2 1 -6z m59 -25 c14 -20 16 -238 16 -2119 0 -1985 -1
-2097 -17 -2110 -15 -11 -16 -11 -5 1 9 11 12 448 12 2112 0 2085 0 2098 -20
2118 -11 11 -16 20 -11 20 6 0 17 -10 25 -22z m7536 -203 c0 -5 -5 -3 -10 5
-5 8 -10 20 -10 25 0 6 5 3 10 -5 5 -8 10 -19 10 -25z m-4399 -22 c-12 -20
-14 -14 -5 12 4 9 9 14 11 11 3 -2 0 -13 -6 -23z m6979 -28 c-7 -8 -24 -14
-39 -14 l-26 2 28 4 c16 3 31 11 34 19 3 8 8 13 11 10 3 -3 -1 -12 -8 -21z
m-820 -13 c0 -5 -7 -17 -15 -28 -14 -18 -14 -17 -4 9 12 27 19 34 19 19z
m-6210 -62 c-6 -11 -13 -20 -16 -20 -2 0 0 9 6 20 6 11 13 20 16 20 2 0 0 -9
-6 -20z m4530 -30 c6 -11 8 -20 6 -20 -3 0 -10 9 -16 20 -6 11 -8 20 -6 20 3
0 10 -9 16 -20z m1620 -20 c-6 -11 -13 -20 -16 -20 -2 0 0 9 6 20 6 11 13 20
16 20 2 0 0 -9 -6 -20z m-6190 -20 c-6 -11 -13 -20 -16 -20 -2 0 0 9 6 20 6
11 13 20 16 20 2 0 0 -9 -6 -20z m6160 -30 c-6 -11 -13 -20 -16 -20 -2 0 0 9
6 20 6 11 13 20 16 20 2 0 0 -9 -6 -20z m-1515 -52 c16 -24 22 -38 14 -31 -15
12 -53 73 -46 73 2 0 17 -19 32 -42z m-4702 -9 c-10 -17 -24 -36 -32 -42 -8
-7 -2 7 14 31 32 49 45 57 18 11z m6157 -33 c0 -2 -8 -10 -17 -17 -16 -13 -17
-12 -4 4 13 16 21 21 21 13z m-7570 -46 c12 -16 19 -30 16 -30 -2 0 -14 14
-26 30 -12 17 -19 30 -16 30 2 0 14 -13 26 -30z m1370 16 c0 -2 -8 -10 -17
-17 -16 -13 -17 -12 -4 4 13 16 21 21 21 13z m4811 -23 c13 -16 12 -17 -3 -4
-10 7 -18 15 -18 17 0 8 8 3 21 -13z m-4841 -17 c0 -2 -8 -10 -17 -17 -16 -13
-17 -12 -4 4 13 16 21 21 21 13z m6180 1 c0 -2 -10 -12 -22 -23 l-23 -19 19
23 c18 21 26 27 26 19z m-1309 -24 c13 -16 12 -17 -3 -4 -10 7 -18 15 -18 17
0 8 8 3 21 -13z m-6160 -20 c13 -16 12 -17 -3 -4 -17 13 -22 21 -14 21 2 0 10
-8 17 -17z m1259 3 c0 -2 -8 -10 -17 -17 -16 -13 -17 -12 -4 4 13 16 21 21 21
13z m4935 -26 c10 -11 16 -20 13 -20 -3 0 -13 9 -23 20 -10 11 -16 20 -13 20
3 0 13 -9 23 -20z m1235 17 c0 -2 -10 -12 -22 -23 l-23 -19 19 23 c18 21 26
27 26 19z m-7395 -37 c10 -11 16 -20 13 -20 -3 0 -13 9 -23 20 -10 11 -16 20
-13 20 3 0 13 -9 23 -20z m1185 -3 c0 -2 -10 -12 -22 -23 l-23 -19 19 23 c18
21 26 27 26 19z m6170 -10 c0 -2 -12 -14 -27 -28 l-28 -24 24 28 c23 25 31 32
31 24z m-1140 -32 c13 -14 21 -25 18 -25 -2 0 -15 11 -28 25 -13 14 -21 25
-18 25 2 0 15 -11 28 -25z m-6154 -27 l29 -33 -32 29 c-31 28 -38 36 -30 36 2
0 16 -15 33 -32z m1074 9 c0 -2 -17 -19 -37 -38 l-38 -34 34 38 c33 34 41 42
41 34z m6160 -20 c0 -2 -19 -21 -42 -42 l-43 -40 40 43 c36 39 45 47 45 39z
m-995 -57 c27 -27 47 -50 44 -50 -3 0 -27 23 -54 50 -27 28 -47 50 -44 50 3 0
27 -22 54 -50z m-6090 -90 c60 -60 107 -110 105 -110 -3 0 -55 50 -115 110
-60 61 -107 110 -105 110 3 0 55 -49 115 -110z m835 67 c0 -1 -33 -34 -72 -72
l-73 -70 70 73 c64 67 75 77 75 69z m7357 -93 c-3 -3 -12 -4 -19 -1 -8 3 -5 6
6 6 11 1 17 -2 13 -5z m-47 -146 l-5 -143 -3 129 c-2 114 0 156 10 156 2 0 1
-64 -2 -142z m91 125 c13 -17 13 -17 -6 -3 -11 8 -22 16 -24 17 -2 2 0 3 6 3
6 0 17 -8 24 -17z m-1961 -48 c30 -30 52 -55 49 -55 -2 0 -29 25 -59 55 -30
30 -52 55 -49 55 2 0 29 -25 59 -55z m600 32 c0 -1 -24 -25 -52 -52 l-53 -50
50 53 c46 48 55 57 55 49z m-6220 -40 c0 -2 -19 -21 -42 -42 l-43 -40 40 43
c36 39 45 47 45 39z m-480 -62 c19 -19 32 -35 29 -35 -3 0 -20 16 -39 35 -19
19 -32 35 -29 35 3 0 20 -16 39 -35z m6206 -27 l29 -33 -32 29 c-31 28 -38 36
-30 36 2 0 16 -15 33 -32z m374 19 c0 -2 -15 -16 -32 -33 l-33 -29 29 33 c28
30 36 37 36 29z m-6200 -20 c0 -2 -12 -14 -27 -28 l-28 -24 24 28 c23 25 31
32 31 24z m-300 -42 c13 -14 21 -25 18 -25 -2 0 -15 11 -28 25 -13 14 -21 25
-18 25 2 0 15 -11 28 -25z m6195 -15 c10 -11 16 -20 13 -20 -3 0 -13 9 -23 20
-10 11 -16 20 -13 20 3 0 13 -9 23 -20z m235 17 c0 -2 -12 -14 -27 -28 l-28
-24 24 28 c23 25 31 32 31 24z m-6200 -20 c0 -2 -10 -12 -22 -23 l-23 -19 19
23 c18 21 26 27 26 19z m-175 -27 c10 -11 16 -20 13 -20 -3 0 -13 9 -23 20
-10 11 -16 20 -13 20 3 0 13 -9 23 -20z m6196 -17 c13 -16 12 -17 -3 -4 -10 7
-18 15 -18 17 0 8 8 3 21 -13z m104 -3 c-10 -11 -22 -20 -28 -20 -5 0 1 9 14
20 31 25 37 25 14 0z m1636 -43 c-10 -9 -11 -8 -5 6 3 10 9 15 12 12 3 -3 0
-11 -7 -18z m-24 -13 c-3 -3 -12 -4 -19 -1 -8 3 -5 6 6 6 11 1 17 -2 13 -5z
m-11182 -1764 l20 -25 -22 19 c-13 11 -23 24 -23 29 0 6 1 8 3 6 1 -2 11 -15
22 -29z m11809 -19 c-3 -3 -15 6 -27 18 l-22 24 27 -19 c14 -10 24 -21 22 -23z
m44 -537 c12 -8 22 -19 22 -25 0 -5 -9 0 -21 12 -15 15 -30 20 -54 17 -19 -2
-31 0 -29 4 9 14 58 9 82 -8z m29 -587 c-1 -100 -2 -18 -2 183 0 201 1 283 2
182 2 -100 2 -264 0 -365z m-11889 469 c-7 -8 -15 -12 -17 -11 -5 6 10 25 20
25 5 0 4 -6 -3 -14z m79 -8 c22 -21 23 -27 23 -193 0 -183 -3 -196 -49 -194
-24 1 -24 2 4 8 l30 6 3 174 c3 182 0 194 -43 211 -11 5 -14 9 -6 9 8 1 25 -9
38 -21z m-72 -358 l20 -25 -22 19 c-13 11 -23 24 -23 29 0 6 1 8 3 6 1 -2 11
-15 22 -29z m1005 -145 c14 -19 14 -19 -2 -6 -10 7 -18 18 -18 24 0 6 1 8 3 6
1 -2 9 -13 17 -24z"/>
<path d="M4243 12290 c-47 -19 -57 -87 -18 -125 30 -30 64 -32 99 -4 37 29 37
89 0 118 -29 23 -46 25 -81 11z"/>
<path d="M7500 17520 c-458 -63 -860 -333 -1099 -736 -147 -250 -219 -579
-191 -878 62 -658 527 -1181 1181 -1328 90 -20 131 -23 304 -23 221 0 319 15
494 77 361 127 671 400 843 742 117 233 174 540 148 801 -66 663 -530 1184
-1182 1326 -106 23 -390 34 -498 19z m300 -190 c568 -51 1017 -438 1158 -998
24 -96 26 -126 27 -287 0 -241 -31 -378 -131 -580 -147 -299 -412 -534 -732
-649 -262 -94 -592 -94 -854 0 -190 69 -342 166 -489 313 -188 189 -299 395
-356 661 -25 118 -25 381 0 500 85 400 338 730 692 905 166 82 292 118 465
134 47 5 90 9 95 10 6 0 62 -4 125 -9z"/>
<path d="M7667 14079 c-31 -18 -48 -71 -36 -113 19 -68 103 -82 143 -24 51 73
-33 180 -107 137z"/>
<path d="M7667 13559 c-31 -18 -48 -71 -36 -113 19 -68 103 -82 143 -24 51 73
-33 180 -107 137z"/>
<path d="M7667 13039 c-31 -18 -48 -71 -36 -113 19 -68 103 -82 143 -24 51 73
-33 180 -107 137z"/>
<path d="M7667 12519 c-31 -18 -48 -71 -36 -113 19 -68 103 -82 143 -24 51 73
-33 180 -107 137z"/>
<path d="M7667 11999 c-31 -18 -48 -71 -36 -113 19 -68 103 -82 143 -24 51 73
-33 180 -107 137z"/>
<path d="M7667 11479 c-31 -18 -48 -71 -36 -113 18 -64 98 -81 139 -28 58 72
-26 186 -103 141z"/>
<path d="M7667 10959 c-31 -18 -48 -71 -36 -113 18 -64 98 -81 139 -28 58 72
-26 186 -103 141z"/>
<path d="M7667 10439 c-31 -18 -48 -71 -36 -113 18 -64 98 -81 139 -28 58 72
-26 186 -103 141z"/>
</g>
</svg>
